<svg xmlns="http://www.w3.org/2000/svg" viewBox="0 0 277.72 248.44"><defs><style>.cls-1{font-size:32px;font-family:Arbotek-Light, Arbotek;}.cls-1,.cls-4,.cls-5{fill:#1d1d1b;}.cls-1,.cls-5{font-weight:300;}.cls-2{letter-spacing:-0.08em;}.cls-3{letter-spacing:-0.04em;}.cls-4{font-size:34px;font-family:LithosPro-Regular, Lithos Pro;}.cls-5{font-size:15.4px;font-family:LithosPro-Light, Lithos Pro;}.cls-6{letter-spacing:-0.04em;}.cls-7{letter-spacing:-0.05em;}.cls-8{letter-spacing:-0.05em;}.cls-9{letter-spacing:0em;}.cls-10,.cls-11{fill:none;stroke:#1d1d1b;stroke-miterlimit:10;}.cls-10{stroke-width:0.75px;}.cls-11{stroke-width:1.5px;}</style></defs><g id="logo"><text class="cls-1" transform="translate(23.43 195.69)"><tspan class="cls-2">L</tspan><tspan x="21.06" y="0">e pat</tspan><tspan class="cls-3" x="102.08" y="0">i</tspan><tspan x="109.54" y="0">o </tspan></text><text class="cls-4" transform="translate(163.64 195.73)">VERT</text><text class="cls-5" transform="translate(53.53 223.03)"><tspan class="cls-6">P</tspan><tspan class="cls-7" x="8.87" y="0">a</tspan><tspan x="18.82" y="0">ysagiste Cré</tspan><tspan class="cls-8" x="117.9" y="0">a</tspan><tspan class="cls-9" x="127.99" y="0">teur</tspan></text><path class="cls-10" d="M211.9,73.69v82.05l-117-.13V73.69s6.63-47.23,50.87-52c.53-.06,1.07-.12,1.62-.15q2.82-.26,5.84-.25c1.43,0,2.82,0,4.18.13.58,0,1.15.07,1.71.12a59.2,59.2,0,0,1,10.18,1.72c.88.22,1.75.47,2.6.74a52.81,52.81,0,0,1,6.2,2.37,50.64,50.64,0,0,1,7.6,4.3A52.07,52.07,0,0,1,192.29,36,56.58,56.58,0,0,1,198,42.19a65,65,0,0,1,4.83,7.09,69.85,69.85,0,0,1,4,7.88c.44,1,.84,2,1.2,2.89h0c.83,2.1,1.49,4,2,5.79A60.41,60.41,0,0,1,211.9,73.69Z"/><path class="cls-11" d="M136,21.24c-53,0-60.63,52.45-60.63,52.45v81.92l121.61.13V73.69S189,21.24,136,21.24Z"/><polyline class="cls-10" points="112.48 155.03 110.7 153.25 104.75 147.31 98.79 141.34 95.58 138.13"/><polyline class="cls-10" points="95.58 149.87 98.88 153.16 100.74 155.03"/><polyline class="cls-10" points="124.4 155.04 122.61 153.25 116.65 147.29 110.7 141.34 104.75 135.4 98.8 129.44 95.58 126.22"/><polyline class="cls-10" points="95.58 114.31 98.8 117.53 104.75 123.48 110.7 129.44 116.66 135.4 122.61 141.34 128.56 147.29 134.51 153.25 136.32 155.06"/><polyline class="cls-10" points="95.58 102.42 98.8 105.64 104.75 111.58 110.7 117.53 116.65 123.48 122.61 129.44 128.56 135.4 134.51 141.34 140.46 147.29 146.42 153.25 148.24 155.07"/><polyline class="cls-10" points="160.15 155.09 158.32 153.25 152.37 147.29 146.41 141.34 140.46 135.4 134.51 129.44 128.56 123.48 122.6 117.53 116.65 111.58 110.7 105.63 104.75 99.67 98.79 93.72 95.58 90.5"/><polyline class="cls-10" points="172.08 155.09 170.23 153.25 164.28 147.29 158.32 141.34 152.37 135.38 146.42 129.44 140.47 123.48 134.51 117.53 128.56 111.58 122.61 105.63 116.65 99.67 110.7 93.72 104.75 87.77 98.79 81.81 95.58 78.61"/><polyline class="cls-10" points="183.99 155.1 182.14 153.25 176.18 147.29 170.23 141.34 164.28 135.4 158.32 129.44 152.37 123.48 146.42 117.53 140.47 111.58 134.51 105.63 128.56 99.67 122.61 93.72 116.66 87.78 110.7 81.81 104.75 75.86 98.88 70 96.74 67.86"/><polyline class="cls-10" points="195.91 155.13 194.04 153.25 188.09 147.31 182.13 141.34 176.18 135.4 170.23 129.44 164.27 123.48 158.32 117.53 152.37 111.58 146.42 105.64 140.46 99.67 134.51 93.72 128.56 87.78 122.61 81.83 116.65 75.86 110.7 69.92 104.83 64.05 99.74 58.95"/><polyline class="cls-10" points="207.82 155.13 205.94 153.25 199.99 147.29 194.04 141.34 188.08 135.4 182.13 129.44 176.18 123.48 170.22 117.53 164.27 111.58 158.32 105.63 152.37 99.67 146.42 93.72 140.46 87.78 134.51 81.81 128.56 75.86 122.6 69.92 116.65 63.95 110.79 58.09 104.88 52.19 103.6 50.91"/><polyline class="cls-10" points="211.9 147.29 205.94 141.34 199.99 135.4 194.04 129.44 188.09 123.48 182.13 117.53 176.18 111.58 170.23 105.63 164.27 99.67 158.32 93.72 152.37 87.78 146.42 81.81 140.46 75.86 134.51 69.92 128.56 63.95 122.6 58.01 116.74 52.15 110.83 46.23 108.26 43.66"/><polyline class="cls-10" points="211.9 135.4 205.95 129.44 199.99 123.48 194.04 117.53 188.09 111.58 182.13 105.63 176.18 99.67 170.23 93.72 164.28 87.78 158.32 81.81 152.37 75.86 146.42 69.92 140.47 63.97 134.51 58.01 128.56 52.05 122.69 46.19 116.78 40.27 113.75 37.24 113.74 37.24"/><polyline class="cls-10" points="211.9 123.5 205.94 117.53 199.99 111.58 194.04 105.64 188.08 99.67 182.13 93.72 176.18 87.78 170.23 81.83 164.27 75.86 158.32 69.92 152.37 63.97 146.42 58.02 140.46 52.05 134.51 46.1 128.64 40.23 122.73 34.33 120.11 31.7"/><polyline class="cls-10" points="211.9 111.58 205.94 105.63 199.99 99.67 194.04 93.72 188.09 87.78 182.13 81.81 176.18 75.86 170.23 69.92 164.28 63.97 158.32 58.01 152.37 52.05 146.42 46.1 140.46 40.15 134.6 34.28 128.69 28.38 127.45 27.14"/><polyline class="cls-10" points="135.88 23.66 140.55 28.32 146.42 34.2 152.37 40.15 158.33 46.1 164.28 52.05 170.23 58.01 176.18 63.95 182.14 69.92 188.09 75.86 194.04 81.81 199.99 87.77 205.95 93.72 211.9 99.67"/><polyline class="cls-10" points="211.9 87.78 205.94 81.81 199.99 75.86 194.04 69.92 188.09 63.97 182.13 58.01 176.18 52.05 170.23 46.1 164.28 40.16 158.32 34.2 152.37 28.25 146.5 22.38 145.55 21.43"/><polyline class="cls-10" points="211.9 75.87 205.94 69.92 199.99 63.96 194.04 58.01 188.09 52.06 182.13 46.11 176.18 40.15 170.23 34.2 164.27 28.25 158.32 22.29 157.41 21.38"/><polyline class="cls-10" points="207.99 60.06 207.99 60.05 205.94 58.01 199.99 52.06 194.04 46.11 188.09 40.15 182.13 34.2 176.18 28.25 171.9 23.96"/><polyline class="cls-10" points="159.12 21.5 158.32 22.29 152.37 28.25 146.42 34.2 140.46 40.15 134.51 46.11 128.56 52.06 122.6 58.01 116.65 63.96 110.7 69.92 104.75 75.87 98.79 81.82 95.58 85.04"/><polyline class="cls-10" points="95.58 73.3 98.88 70 104.83 64.05 110.79 58.1 116.74 52.15 122.69 46.19 128.64 40.24 134.6 34.29 140.55 28.33 146.5 22.38 147.39 21.5"/><polyline class="cls-10" points="132.01 25.05 132 25.07 128.69 28.38 122.73 34.33 116.78 40.27 110.83 46.23 104.88 52.19 101 56.05 100.99 56.06"/><polyline class="cls-10" points="169.3 23.22 164.27 28.25 158.32 34.2 152.37 40.15 146.42 46.11 140.46 52.06 134.51 58.01 128.56 63.96 122.6 69.92 116.65 75.87 110.7 81.82 104.75 87.77 98.79 93.73 95.58 96.94"/><polyline class="cls-10" points="178.1 26.33 176.18 28.25 170.23 34.2 164.28 40.16 158.33 46.11 152.37 52.06 146.42 58.02 140.47 63.97 134.51 69.92 128.56 75.87 122.61 81.83 116.66 87.78 110.7 93.73 104.75 99.68 98.8 105.64 95.58 108.85"/><polyline class="cls-10" points="95.58 120.75 98.8 117.54 104.75 111.59 110.7 105.63 116.65 99.68 122.61 93.73 128.56 87.78 134.51 81.82 140.46 75.87 146.42 69.92 152.37 63.97 158.32 58.01 164.28 52.06 170.23 46.11 176.18 40.15 182.13 34.2 185.7 30.63"/><polyline class="cls-10" points="95.58 132.66 98.8 129.45 104.75 123.49 110.7 117.54 116.65 111.59 122.61 105.63 128.56 99.68 134.51 93.73 140.46 87.78 146.42 81.82 152.37 75.87 158.32 69.92 164.28 63.97 170.23 58.01 176.18 52.06 182.13 46.11 188.09 40.15 192.29 35.95"/><polyline class="cls-10" points="197.95 42.19 194.04 46.11 188.09 52.06 182.13 58.01 176.18 63.96 170.23 69.92 164.27 75.87 158.32 81.82 152.37 87.78 146.42 93.73 140.46 99.68 134.51 105.63 128.56 111.59 122.6 117.54 116.65 123.49 110.7 129.44 104.75 135.4 98.79 141.35 95.58 144.56"/><polyline class="cls-10" points="202.78 49.28 199.99 52.06 194.04 58.01 188.09 63.97 182.14 69.92 176.18 75.87 170.23 81.83 164.28 87.78 158.32 93.73 152.37 99.68 146.42 105.64 140.47 111.59 134.51 117.54 128.56 123.49 122.61 129.45 116.66 135.4 110.7 141.35 104.75 147.31 98.88 153.17 97.03 155.02"/><polyline class="cls-10" points="206.79 57.16 205.94 58.01 199.99 63.96 194.04 69.92 188.09 75.87 182.13 81.82 176.18 87.78 170.23 93.73 164.27 99.68 158.32 105.63 152.37 111.59 146.42 117.54 140.47 123.49 134.51 129.45 128.56 135.4 122.61 141.35 116.65 147.3 110.7 153.26 108.92 155.03"/><polyline class="cls-10" points="210.01 65.85 205.94 69.92 199.99 75.87 194.04 81.82 188.09 87.78 182.13 93.73 176.18 99.68 170.23 105.63 164.27 111.59 158.32 117.54 152.37 123.49 146.42 129.44 140.46 135.4 134.51 141.35 128.56 147.3 122.61 153.26 120.81 155.05"/><polyline class="cls-10" points="211.9 75.86 205.94 81.81 199.99 87.77 194.04 93.72 188.08 99.67 182.13 105.63 176.18 111.58 170.22 117.53 164.27 123.48 158.32 129.44 152.37 135.38 146.41 141.34 140.46 147.29 134.51 153.25 132.7 155.06"/><polyline class="cls-10" points="211.9 87.78 205.95 93.72 199.99 99.67 194.04 105.64 188.09 111.58 182.13 117.53 176.18 123.48 170.23 129.44 164.28 135.4 158.32 141.34 152.37 147.29 146.42 153.25 144.6 155.06"/><polyline class="cls-10" points="211.9 99.67 205.94 105.63 199.99 111.58 194.04 117.53 188.09 123.48 182.13 129.44 176.18 135.4 170.23 141.34 164.28 147.29 158.32 153.25 156.49 155.09"/><polyline class="cls-10" points="168.38 155.09 170.23 153.25 176.18 147.29 182.13 141.34 188.08 135.4 194.04 129.44 199.99 123.48 205.94 117.53 211.9 111.58"/><polyline class="cls-10" points="180.28 155.1 182.14 153.25 188.09 147.31 194.04 141.34 199.99 135.4 205.95 129.44 211.9 123.5"/><polyline class="cls-10" points="211.9 135.4 205.94 141.34 199.99 147.29 194.04 153.25 192.17 155.12"/><polyline class="cls-10" points="211.9 147.29 205.94 153.25 204.06 155.13"/></g></svg>