<svg xmlns="http://www.w3.org/2000/svg" viewBox="0 0 691.59 394.28"><defs><style>.cls-1{font-size:61.85px;fill:#e96c08;font-family:Arbotek-Light, Arbotek;}.cls-1,.cls-5{font-weight:300;}.cls-2{letter-spacing:-0.08em;}.cls-3{letter-spacing:-0.04em;}.cls-4{font-size:65.72px;font-family:LithosPro-Regular, Lithos Pro;}.cls-4,.cls-5{fill:#81a92f;}.cls-5{font-size:29.76px;font-family:LithosPro-Light, Lithos Pro;}.cls-6{letter-spacing:-0.04em;}.cls-7{letter-spacing:-0.06em;}.cls-8{letter-spacing:0em;}.cls-9{letter-spacing:-0.05em;}.cls-10,.cls-11{fill:none;stroke-miterlimit:10;}.cls-10{stroke:#81a92f;stroke-width:0.75px;}.cls-11{stroke:#e96c08;stroke-width:1.5px;}</style></defs><g id="logo"><text class="cls-1" transform="translate(199.36 192.11)"><tspan class="cls-2">L</tspan><tspan x="40.7" y="0">e pat</tspan><tspan class="cls-3" x="197.3" y="0">i</tspan><tspan x="211.71" y="0">o </tspan></text><text class="cls-4" transform="translate(470.36 192.17)">VERT</text><text class="cls-5" transform="translate(257.52 244.94)"><tspan class="cls-6">P</tspan><tspan class="cls-7" x="17.14" y="0">a</tspan><tspan class="cls-8" x="36.37" y="0">ysagiste Cré</tspan><tspan class="cls-9" x="227.88" y="0">a</tspan><tspan x="247.38" y="0">teur</tspan></text><path class="cls-10" d="M180.69,164.54v82.05l-117-.13V164.54s6.63-47.23,50.87-52c.53-.06,1.07-.12,1.62-.15q2.82-.25,5.84-.25c1.43,0,2.82,0,4.18.13.58,0,1.15.07,1.71.12a59.2,59.2,0,0,1,10.18,1.72c.88.22,1.75.47,2.6.74a52.81,52.81,0,0,1,6.2,2.37,50.64,50.64,0,0,1,7.6,4.3,52.07,52.07,0,0,1,6.59,5.32,56.58,56.58,0,0,1,5.66,6.24,65,65,0,0,1,4.83,7.09,69.85,69.85,0,0,1,4,7.88c.44,1,.84,2,1.2,2.89h0c.83,2.1,1.49,4.05,2,5.79A60.41,60.41,0,0,1,180.69,164.54Z"/><path class="cls-11" d="M104.82,112.09c-53,0-60.62,52.44-60.62,52.44v81.92l121.61.14V164.53S157.8,112.09,104.82,112.09Z"/><polyline class="cls-10" points="81.27 245.88 79.49 244.1 73.54 238.15 67.58 232.19 64.37 228.98"/><polyline class="cls-10" points="64.37 240.71 67.67 244.01 69.53 245.87"/><polyline class="cls-10" points="93.19 245.89 91.4 244.1 85.44 238.14 79.49 232.19 73.54 226.24 67.59 220.29 64.37 217.07"/><polyline class="cls-10" points="64.37 205.16 67.59 208.38 73.54 214.33 79.49 220.28 85.45 226.24 91.4 232.19 97.35 238.14 103.3 244.09 105.11 245.9"/><polyline class="cls-10" points="64.37 193.26 67.59 196.48 73.54 202.43 79.49 208.38 85.44 214.33 91.4 220.29 97.35 226.24 103.3 232.19 109.25 238.14 115.21 244.1 117.03 245.92"/><polyline class="cls-10" points="128.94 245.93 127.11 244.1 121.16 238.14 115.2 232.19 109.25 226.24 103.3 220.29 97.35 214.33 91.39 208.38 85.44 202.43 79.49 196.47 73.54 190.52 67.58 184.57 64.37 181.35"/><polyline class="cls-10" points="140.87 245.94 139.02 244.09 133.07 238.14 127.11 232.19 121.16 226.23 115.21 220.28 109.26 214.33 103.3 208.38 97.35 202.43 91.4 196.47 85.44 190.52 79.49 184.57 73.54 178.61 67.58 172.66 64.37 169.45"/><polyline class="cls-10" points="152.78 245.95 150.93 244.1 144.97 238.14 139.02 232.19 133.07 226.24 127.11 220.28 121.16 214.33 115.21 208.38 109.26 202.43 103.3 196.47 97.35 190.52 91.4 184.57 85.45 178.62 79.49 172.66 73.54 166.71 67.67 160.84 65.53 158.7"/><polyline class="cls-10" points="164.7 245.97 162.83 244.1 156.88 238.15 150.92 232.19 144.97 226.24 139.02 220.29 133.06 214.33 127.11 208.38 121.16 202.43 115.21 196.48 109.25 190.52 103.3 184.57 97.35 178.62 91.4 172.67 85.44 166.71 79.49 160.76 73.62 154.89 68.53 149.8"/><polyline class="cls-10" points="176.61 245.98 174.73 244.1 168.78 238.14 162.83 232.19 156.87 226.24 150.92 220.29 144.97 214.33 139.01 208.38 133.06 202.43 127.11 196.47 121.16 190.52 115.21 184.57 109.25 178.62 103.3 172.66 97.35 166.71 91.39 160.76 85.44 154.8 79.58 148.94 73.67 143.03 72.39 141.75"/><polyline class="cls-10" points="180.69 238.14 174.73 232.19 168.78 226.24 162.83 220.28 156.88 214.33 150.92 208.38 144.97 202.43 139.02 196.47 133.06 190.52 127.11 184.57 121.16 178.62 115.21 172.66 109.25 166.71 103.3 160.76 97.35 154.8 91.39 148.85 85.53 142.99 79.62 137.08 77.05 134.51"/><polyline class="cls-10" points="180.69 226.24 174.74 220.29 168.78 214.33 162.83 208.38 156.88 202.43 150.92 196.47 144.97 190.52 139.02 184.57 133.07 178.62 127.11 172.66 121.16 166.71 115.21 160.76 109.26 154.81 103.3 148.85 97.35 142.9 91.48 137.03 85.57 131.12 82.54 128.09 82.53 128.09"/><polyline class="cls-10" points="180.69 214.34 174.73 208.38 168.78 202.43 162.83 196.48 156.87 190.52 150.92 184.57 144.97 178.62 139.02 172.67 133.06 166.71 127.11 160.76 121.16 154.81 115.21 148.86 109.25 142.9 103.3 136.95 97.43 131.08 91.52 125.17 88.9 122.55"/><polyline class="cls-10" points="180.69 202.43 174.73 196.47 168.78 190.52 162.83 184.57 156.88 178.62 150.92 172.66 144.97 166.71 139.02 160.76 133.07 154.81 127.11 148.85 121.16 142.9 115.21 136.95 109.25 130.99 103.39 125.13 97.48 119.22 96.24 117.98"/><polyline class="cls-10" points="104.67 114.5 109.34 119.17 115.21 125.04 121.16 130.99 127.12 136.95 133.07 142.9 139.02 148.85 144.97 154.8 150.93 160.76 156.88 166.71 162.83 172.66 168.78 178.61 174.74 184.57 180.69 190.52"/><polyline class="cls-10" points="180.69 178.62 174.73 172.66 168.78 166.71 162.83 160.76 156.88 154.81 150.92 148.85 144.97 142.9 139.02 136.95 133.07 131 127.11 125.04 121.16 119.09 115.29 113.22 114.34 112.27"/><polyline class="cls-10" points="180.69 166.72 174.73 160.77 168.78 154.81 162.83 148.86 156.88 142.91 150.92 136.96 144.97 131 139.02 125.05 133.06 119.1 127.11 113.14 126.2 112.23"/><polyline class="cls-10" points="176.78 150.91 176.78 150.9 174.73 148.86 168.78 142.91 162.83 136.96 156.88 131 150.92 125.05 144.97 119.1 140.69 114.81"/><polyline class="cls-10" points="127.91 112.35 127.11 113.14 121.16 119.1 115.21 125.05 109.25 131 103.3 136.96 97.35 142.91 91.39 148.86 85.44 154.81 79.49 160.77 73.54 166.72 67.58 172.67 64.37 175.89"/><polyline class="cls-10" points="64.37 164.15 67.67 160.85 73.62 154.9 79.58 148.95 85.53 143 91.48 137.04 97.43 131.09 103.39 125.14 109.34 119.18 115.29 113.23 116.18 112.35"/><polyline class="cls-10" points="100.8 115.9 100.79 115.91 97.48 119.22 91.52 125.17 85.57 131.12 79.62 137.08 73.67 143.03 69.79 146.9 69.78 146.91"/><polyline class="cls-10" points="138.09 114.07 133.06 119.1 127.11 125.05 121.16 131 115.21 136.96 109.25 142.91 103.3 148.86 97.35 154.81 91.39 160.77 85.44 166.72 79.49 172.67 73.54 178.62 67.58 184.58 64.37 187.79"/><polyline class="cls-10" points="146.89 117.18 144.97 119.1 139.02 125.05 133.07 131.01 127.12 136.96 121.16 142.91 115.21 148.87 109.26 154.82 103.3 160.77 97.35 166.72 91.4 172.68 85.45 178.63 79.49 184.58 73.54 190.53 67.59 196.49 64.37 199.7"/><polyline class="cls-10" points="64.37 211.6 67.59 208.39 73.54 202.44 79.49 196.48 85.44 190.53 91.4 184.58 97.35 178.63 103.3 172.67 109.25 166.72 115.21 160.77 121.16 154.82 127.11 148.86 133.07 142.91 139.02 136.96 144.97 131 150.92 125.05 154.49 121.48"/><polyline class="cls-10" points="64.37 223.51 67.59 220.3 73.54 214.34 79.49 208.39 85.44 202.44 91.4 196.48 97.35 190.53 103.3 184.58 109.25 178.63 115.21 172.67 121.16 166.72 127.11 160.77 133.07 154.82 139.02 148.86 144.97 142.91 150.92 136.96 156.88 131 161.08 126.8"/><polyline class="cls-10" points="166.74 133.04 162.83 136.96 156.88 142.91 150.92 148.86 144.97 154.81 139.02 160.77 133.06 166.72 127.11 172.67 121.16 178.63 115.21 184.58 109.25 190.53 103.3 196.48 97.35 202.44 91.39 208.39 85.44 214.34 79.49 220.29 73.54 226.25 67.58 232.2 64.37 235.41"/><polyline class="cls-10" points="171.57 140.13 168.78 142.91 162.83 148.86 156.88 154.82 150.93 160.77 144.97 166.72 139.02 172.68 133.07 178.63 127.11 184.58 121.16 190.53 115.21 196.49 109.26 202.44 103.3 208.39 97.35 214.34 91.4 220.3 85.45 226.25 79.49 232.2 73.54 238.16 67.67 244.02 65.82 245.87"/><polyline class="cls-10" points="175.58 148.01 174.73 148.86 168.78 154.81 162.83 160.77 156.88 166.72 150.92 172.67 144.97 178.63 139.02 184.58 133.06 190.53 127.11 196.48 121.16 202.44 115.21 208.39 109.26 214.34 103.3 220.3 97.35 226.25 91.4 232.2 85.44 238.15 79.49 244.11 77.71 245.88"/><polyline class="cls-10" points="178.8 156.7 174.73 160.77 168.78 166.72 162.83 172.67 156.88 178.63 150.92 184.58 144.97 190.53 139.02 196.48 133.06 202.44 127.11 208.39 121.16 214.34 115.21 220.29 109.25 226.25 103.3 232.2 97.35 238.15 91.4 244.11 89.6 245.9"/><polyline class="cls-10" points="180.69 166.71 174.73 172.66 168.78 178.61 162.83 184.57 156.87 190.52 150.92 196.47 144.97 202.43 139.01 208.38 133.06 214.33 127.11 220.28 121.16 226.23 115.2 232.19 109.25 238.14 103.3 244.09 101.49 245.9"/><polyline class="cls-10" points="180.69 178.62 174.74 184.57 168.78 190.52 162.83 196.48 156.88 202.43 150.92 208.38 144.97 214.33 139.02 220.29 133.07 226.24 127.11 232.19 121.16 238.14 115.21 244.1 113.39 245.91"/><polyline class="cls-10" points="180.69 190.52 174.73 196.47 168.78 202.43 162.83 208.38 156.88 214.33 150.92 220.29 144.97 226.24 139.02 232.19 133.07 238.14 127.11 244.1 125.28 245.93"/><polyline class="cls-10" points="137.17 245.94 139.02 244.09 144.97 238.14 150.92 232.19 156.87 226.24 162.83 220.28 168.78 214.33 174.73 208.38 180.69 202.43"/><polyline class="cls-10" points="149.07 245.95 150.93 244.1 156.88 238.15 162.83 232.19 168.78 226.24 174.74 220.29 180.69 214.34"/><polyline class="cls-10" points="180.69 226.24 174.73 232.19 168.78 238.14 162.83 244.1 160.96 245.96"/><polyline class="cls-10" points="180.69 238.14 174.73 244.1 172.85 245.98"/></g></svg>