<svg xmlns="http://www.w3.org/2000/svg" viewBox="0 0 277.72 248.44"><defs><style>.cls-1,.cls-2{fill:none;stroke-miterlimit:10;}.cls-1{stroke:#81a92f;stroke-width:0.75px;}.cls-2{stroke:#e96c08;stroke-width:1.5px;}.cls-3{font-size:32px;fill:#e96c08;font-family:Arbotek-Light, Arbotek;}.cls-3,.cls-7{font-weight:300;}.cls-4{letter-spacing:-0.08em;}.cls-5{letter-spacing:-0.04em;}.cls-6{font-size:34px;font-family:LithosPro-Regular, Lithos Pro;}.cls-6,.cls-7{fill:#81a92f;}.cls-7{font-size:15.4px;font-family:LithosPro-Light, Lithos Pro;}.cls-8{letter-spacing:-0.04em;}.cls-9{letter-spacing:-0.05em;}.cls-10{letter-spacing:-0.05em;}.cls-11{letter-spacing:0em;}</style></defs><g id="logo"><path class="cls-1" d="M208.13,72.8v82.05l-117-.13V72.8s6.63-47.23,50.87-52c.53-.06,1.07-.12,1.62-.15q2.82-.25,5.84-.25c1.43,0,2.82,0,4.18.13.58,0,1.15.07,1.71.12a59.2,59.2,0,0,1,10.18,1.72c.88.22,1.75.47,2.6.74a52.81,52.81,0,0,1,6.2,2.37,50.64,50.64,0,0,1,7.6,4.3,52.07,52.07,0,0,1,6.59,5.32,56.58,56.58,0,0,1,5.66,6.24A65,65,0,0,1,199,48.39a69.85,69.85,0,0,1,4,7.88c.44,1,.84,1.95,1.2,2.89h0c.83,2.1,1.49,4,2,5.79A60.41,60.41,0,0,1,208.13,72.8Z"/><path class="cls-2" d="M132.26,20.36c-53,0-60.62,52.44-60.62,52.44v81.92l121.61.13v-82S185.24,20.36,132.26,20.36Z"/><polyline class="cls-1" points="108.71 154.15 106.93 152.37 100.98 146.42 95.02 140.46 91.81 137.25"/><polyline class="cls-1" points="91.81 148.98 95.11 152.28 96.97 154.14"/><polyline class="cls-1" points="120.63 154.16 118.84 152.37 112.88 146.41 106.93 140.46 100.98 134.51 95.03 128.56 91.81 125.34"/><polyline class="cls-1" points="91.81 113.43 95.03 116.65 100.98 122.6 106.93 128.55 112.89 134.51 118.84 140.46 124.79 146.41 130.74 152.36 132.55 154.17"/><polyline class="cls-1" points="91.81 101.53 95.03 104.75 100.98 110.7 106.93 116.65 112.88 122.6 118.84 128.56 124.79 134.51 130.74 140.46 136.69 146.41 142.65 152.37 144.47 154.19"/><polyline class="cls-1" points="156.38 154.2 154.55 152.37 148.6 146.41 142.64 140.46 136.69 134.51 130.74 128.56 124.79 122.6 118.83 116.65 112.88 110.7 106.93 104.74 100.98 98.79 95.02 92.84 91.81 89.62"/><polyline class="cls-1" points="168.31 154.21 166.46 152.36 160.51 146.41 154.55 140.46 148.6 134.5 142.65 128.55 136.7 122.6 130.74 116.65 124.79 110.7 118.84 104.74 112.88 98.79 106.93 92.84 100.98 86.88 95.02 80.93 91.81 77.72"/><polyline class="cls-1" points="180.22 154.22 178.37 152.37 172.41 146.41 166.46 140.46 160.51 134.51 154.55 128.55 148.6 122.6 142.65 116.65 136.7 110.7 130.74 104.74 124.79 98.79 118.84 92.84 112.89 86.89 106.93 80.93 100.98 74.98 95.11 69.11 92.97 66.97"/><polyline class="cls-1" points="192.14 154.24 190.27 152.37 184.32 146.42 178.36 140.46 172.41 134.51 166.46 128.56 160.5 122.6 154.55 116.65 148.6 110.7 142.65 104.75 136.69 98.79 130.74 92.84 124.79 86.89 118.84 80.94 112.88 74.98 106.93 69.03 101.06 63.16 95.97 58.07"/><polyline class="cls-1" points="204.05 154.25 202.17 152.37 196.22 146.41 190.27 140.46 184.31 134.51 178.36 128.56 172.41 122.6 166.45 116.65 160.5 110.7 154.55 104.74 148.6 98.79 142.65 92.84 136.69 86.89 130.74 80.93 124.79 74.98 118.83 69.03 112.88 63.07 107.02 57.21 101.11 51.3 99.83 50.02"/><polyline class="cls-1" points="208.13 146.41 202.17 140.46 196.22 134.51 190.27 128.55 184.32 122.6 178.36 116.65 172.41 110.7 166.46 104.74 160.5 98.79 154.55 92.84 148.6 86.89 142.65 80.93 136.69 74.98 130.74 69.03 124.79 63.07 118.83 57.12 112.97 51.26 107.06 45.35 104.49 42.78"/><polyline class="cls-1" points="208.13 134.51 202.18 128.56 196.22 122.6 190.27 116.65 184.32 110.7 178.36 104.74 172.41 98.79 166.46 92.84 160.51 86.89 154.55 80.93 148.6 74.98 142.65 69.03 136.7 63.08 130.74 57.12 124.79 51.17 118.92 45.3 113.01 39.39 109.98 36.36 109.97 36.36"/><polyline class="cls-1" points="208.13 122.61 202.17 116.65 196.22 110.7 190.27 104.75 184.31 98.79 178.36 92.84 172.41 86.89 166.46 80.94 160.5 74.98 154.55 69.03 148.6 63.08 142.65 57.13 136.69 51.17 130.74 45.22 124.87 39.35 118.96 33.44 116.34 30.82"/><polyline class="cls-1" points="208.13 110.7 202.17 104.74 196.22 98.79 190.27 92.84 184.32 86.89 178.36 80.93 172.41 74.98 166.46 69.03 160.51 63.08 154.55 57.12 148.6 51.17 142.65 45.22 136.69 39.26 130.83 33.4 124.92 27.49 123.68 26.25"/><polyline class="cls-1" points="132.11 22.77 136.78 27.44 142.65 33.31 148.6 39.26 154.56 45.22 160.51 51.17 166.46 57.12 172.41 63.07 178.37 69.03 184.32 74.98 190.27 80.93 196.22 86.88 202.18 92.84 208.13 98.79"/><polyline class="cls-1" points="208.13 86.89 202.17 80.93 196.22 74.98 190.27 69.03 184.32 63.08 178.36 57.12 172.41 51.17 166.46 45.22 160.51 39.27 154.55 33.31 148.6 27.36 142.73 21.49 141.78 20.54"/><polyline class="cls-1" points="208.13 74.98 202.17 69.03 196.22 63.07 190.27 57.12 184.32 51.17 178.36 45.22 172.41 39.26 166.46 33.31 160.5 27.36 154.55 21.4 153.64 20.49"/><polyline class="cls-1" points="204.22 59.17 204.22 59.16 202.17 57.12 196.22 51.17 190.27 45.22 184.32 39.26 178.36 33.31 172.41 27.36 168.13 23.07"/><polyline class="cls-1" points="155.35 20.61 154.55 21.4 148.6 27.36 142.65 33.31 136.69 39.26 130.74 45.22 124.79 51.17 118.83 57.12 112.88 63.07 106.93 69.03 100.98 74.98 95.02 80.93 91.81 84.15"/><polyline class="cls-1" points="91.81 72.41 95.11 69.11 101.06 63.16 107.02 57.21 112.97 51.26 118.92 45.3 124.87 39.35 130.83 33.4 136.78 27.44 142.73 21.49 143.62 20.61"/><polyline class="cls-1" points="128.24 24.17 128.23 24.18 124.92 27.49 118.96 33.44 113.01 39.39 107.06 45.35 101.11 51.3 97.23 55.17 97.22 55.18"/><polyline class="cls-1" points="165.53 22.33 160.5 27.36 154.55 33.31 148.6 39.26 142.65 45.22 136.69 51.17 130.74 57.12 124.79 63.07 118.83 69.03 112.88 74.98 106.93 80.93 100.98 86.88 95.02 92.84 91.81 96.05"/><polyline class="cls-1" points="174.33 25.44 172.41 27.36 166.46 33.31 160.51 39.27 154.56 45.22 148.6 51.17 142.65 57.13 136.7 63.08 130.74 69.03 124.79 74.98 118.84 80.94 112.89 86.89 106.93 92.84 100.98 98.79 95.03 104.75 91.81 107.96"/><polyline class="cls-1" points="91.81 119.86 95.03 116.65 100.98 110.7 106.93 104.74 112.88 98.79 118.84 92.84 124.79 86.89 130.74 80.93 136.69 74.98 142.65 69.03 148.6 63.08 154.55 57.12 160.51 51.17 166.46 45.22 172.41 39.26 178.36 33.31 181.93 29.74"/><polyline class="cls-1" points="91.81 131.77 95.03 128.56 100.98 122.6 106.93 116.65 112.88 110.7 118.84 104.74 124.79 98.79 130.74 92.84 136.69 86.89 142.65 80.93 148.6 74.98 154.55 69.03 160.51 63.08 166.46 57.12 172.41 51.17 178.36 45.22 184.32 39.26 188.52 35.06"/><polyline class="cls-1" points="194.18 41.3 190.27 45.22 184.32 51.17 178.36 57.12 172.41 63.07 166.46 69.03 160.5 74.98 154.55 80.93 148.6 86.89 142.65 92.84 136.69 98.79 130.74 104.74 124.79 110.7 118.83 116.65 112.88 122.6 106.93 128.55 100.98 134.51 95.02 140.46 91.81 143.67"/><polyline class="cls-1" points="199.01 48.39 196.22 51.17 190.27 57.12 184.32 63.08 178.37 69.03 172.41 74.98 166.46 80.94 160.51 86.89 154.55 92.84 148.6 98.79 142.65 104.75 136.7 110.7 130.74 116.65 124.79 122.6 118.84 128.56 112.89 134.51 106.93 140.46 100.98 146.42 95.11 152.28 93.26 154.13"/><polyline class="cls-1" points="203.02 56.27 202.17 57.12 196.22 63.07 190.27 69.03 184.32 74.98 178.36 80.93 172.41 86.89 166.46 92.84 160.5 98.79 154.55 104.74 148.6 110.7 142.65 116.65 136.7 122.6 130.74 128.56 124.79 134.51 118.84 140.46 112.88 146.41 106.93 152.37 105.15 154.14"/><polyline class="cls-1" points="206.24 64.96 202.17 69.03 196.22 74.98 190.27 80.93 184.32 86.89 178.36 92.84 172.41 98.79 166.46 104.74 160.5 110.7 154.55 116.65 148.6 122.6 142.65 128.55 136.69 134.51 130.74 140.46 124.79 146.41 118.84 152.37 117.04 154.16"/><polyline class="cls-1" points="208.13 74.98 202.17 80.93 196.22 86.88 190.27 92.84 184.31 98.79 178.36 104.74 172.41 110.7 166.45 116.65 160.5 122.6 154.55 128.55 148.6 134.5 142.64 140.46 136.69 146.41 130.74 152.36 128.93 154.17"/><polyline class="cls-1" points="208.13 86.89 202.18 92.84 196.22 98.79 190.27 104.75 184.32 110.7 178.36 116.65 172.41 122.6 166.46 128.56 160.51 134.51 154.55 140.46 148.6 146.41 142.65 152.37 140.83 154.18"/><polyline class="cls-1" points="208.13 98.79 202.17 104.74 196.22 110.7 190.27 116.65 184.32 122.6 178.36 128.56 172.41 134.51 166.46 140.46 160.51 146.41 154.55 152.37 152.72 154.2"/><polyline class="cls-1" points="164.61 154.21 166.46 152.36 172.41 146.41 178.36 140.46 184.31 134.51 190.27 128.55 196.22 122.6 202.17 116.65 208.13 110.7"/><polyline class="cls-1" points="176.51 154.22 178.37 152.37 184.32 146.42 190.27 140.46 196.22 134.51 202.18 128.56 208.13 122.61"/><polyline class="cls-1" points="208.13 134.51 202.17 140.46 196.22 146.41 190.27 152.37 188.4 154.23"/><polyline class="cls-1" points="208.13 146.41 202.17 152.37 200.29 154.25"/><text class="cls-3" transform="translate(23.43 195.69)"><tspan class="cls-4">L</tspan><tspan x="21.06" y="0">e pat</tspan><tspan class="cls-5" x="102.08" y="0">i</tspan><tspan x="109.54" y="0">o </tspan></text><text class="cls-6" transform="translate(163.64 195.73)">VERT</text><text class="cls-7" transform="translate(53.53 223.03)"><tspan class="cls-8">P</tspan><tspan class="cls-9" x="8.87" y="0">a</tspan><tspan x="18.82" y="0">ysagiste Cré</tspan><tspan class="cls-10" x="117.9" y="0">a</tspan><tspan class="cls-11" x="127.99" y="0">teur</tspan></text></g></svg>