<svg xmlns="http://www.w3.org/2000/svg" viewBox="0 0 277.72 248.44"><defs><style>.cls-1{font-size:32px;font-family:Arbotek-Light, Arbotek;}.cls-1,.cls-4,.cls-5{fill:#fff;}.cls-1,.cls-5{font-weight:300;}.cls-2{letter-spacing:-0.08em;}.cls-3{letter-spacing:-0.04em;}.cls-4{font-size:34px;font-family:LithosPro-Regular, Lithos Pro;}.cls-5{font-size:15.4px;font-family:LithosPro-Light, Lithos Pro;}.cls-6{letter-spacing:-0.04em;}.cls-7{letter-spacing:-0.05em;}.cls-8{letter-spacing:-0.05em;}.cls-9{letter-spacing:0em;}.cls-10,.cls-11{fill:none;stroke:#fff;stroke-miterlimit:10;}.cls-10{stroke-width:0.75px;}.cls-11{stroke-width:1.5px;}</style></defs><g id="logo"><text class="cls-1" transform="translate(23.43 195.69)"><tspan class="cls-2">L</tspan><tspan x="21.06" y="0">e pat</tspan><tspan class="cls-3" x="102.08" y="0">i</tspan><tspan x="109.54" y="0">o </tspan></text><text class="cls-4" transform="translate(163.64 195.73)">VERT</text><text class="cls-5" transform="translate(53.53 223.03)"><tspan class="cls-6">P</tspan><tspan class="cls-7" x="8.87" y="0">a</tspan><tspan x="18.82" y="0">ysagiste Cré</tspan><tspan class="cls-8" x="117.9" y="0">a</tspan><tspan class="cls-9" x="127.99" y="0">teur</tspan></text><path class="cls-10" d="M210.47,73.69v82.05l-117-.13V73.69s6.63-47.23,50.87-52c.53-.06,1.07-.12,1.62-.15q2.82-.26,5.84-.25c1.43,0,2.82,0,4.18.13.58,0,1.15.07,1.71.12a59.2,59.2,0,0,1,10.18,1.72c.88.22,1.75.47,2.6.74a52.81,52.81,0,0,1,6.2,2.37,50.64,50.64,0,0,1,7.6,4.3A52.07,52.07,0,0,1,190.86,36a56.58,56.58,0,0,1,5.66,6.24,65,65,0,0,1,4.83,7.09,69.85,69.85,0,0,1,4,7.88c.44,1,.84,2,1.2,2.89h0c.83,2.1,1.49,4,2,5.79A60.41,60.41,0,0,1,210.47,73.69Z"/><path class="cls-11" d="M134.61,21.24C81.63,21.24,74,73.69,74,73.69v81.92l121.62.13V73.69S187.58,21.24,134.61,21.24Z"/><polyline class="cls-10" points="111.06 155.03 109.28 153.25 103.33 147.31 97.36 141.34 94.16 138.13"/><polyline class="cls-10" points="94.16 149.87 97.45 153.16 99.31 155.03"/><polyline class="cls-10" points="122.97 155.04 121.19 153.25 115.22 147.29 109.28 141.34 103.33 135.4 97.38 129.44 94.16 126.22"/><polyline class="cls-10" points="94.16 114.31 97.38 117.53 103.33 123.48 109.28 129.44 115.23 135.4 121.19 141.34 127.14 147.29 133.09 153.25 134.9 155.06"/><polyline class="cls-10" points="94.16 102.42 97.38 105.64 103.33 111.58 109.28 117.53 115.22 123.48 121.19 129.44 127.14 135.4 133.09 141.34 139.03 147.29 145 153.25 146.81 155.07"/><polyline class="cls-10" points="158.72 155.09 156.9 153.25 150.94 147.29 144.99 141.34 139.03 135.4 133.09 129.44 127.14 123.48 121.17 117.53 115.22 111.58 109.28 105.63 103.33 99.67 97.36 93.72 94.16 90.5"/><polyline class="cls-10" points="170.66 155.09 168.81 153.25 162.85 147.29 156.9 141.34 150.94 135.38 145 129.44 139.04 123.48 133.09 117.53 127.14 111.58 121.19 105.63 115.22 99.67 109.28 93.72 103.33 87.77 97.36 81.81 94.16 78.61"/><polyline class="cls-10" points="182.56 155.1 180.72 153.25 174.75 147.29 168.81 141.34 162.85 135.4 156.9 129.44 150.94 123.48 145 117.53 139.04 111.58 133.09 105.63 127.14 99.67 121.19 93.72 115.23 87.78 109.28 81.81 103.33 75.86 97.45 70 95.31 67.86"/><polyline class="cls-10" points="194.49 155.13 192.62 153.25 186.66 147.31 180.71 141.34 174.75 135.4 168.81 129.44 162.84 123.48 156.9 117.53 150.94 111.58 145 105.64 139.03 99.67 133.09 93.72 127.14 87.78 121.19 81.83 115.22 75.86 109.28 69.92 103.41 64.05 98.31 58.95"/><polyline class="cls-10" points="206.4 155.13 204.51 153.25 198.56 147.29 192.62 141.34 186.66 135.4 180.71 129.44 174.75 123.48 168.79 117.53 162.84 111.58 156.9 105.63 150.94 99.67 145 93.72 139.03 87.78 133.09 81.81 127.14 75.86 121.17 69.92 115.22 63.95 109.36 58.09 103.45 52.19 102.17 50.91"/><polyline class="cls-10" points="210.47 147.29 204.51 141.34 198.56 135.4 192.62 129.44 186.66 123.48 180.71 117.53 174.75 111.58 168.81 105.63 162.84 99.67 156.9 93.72 150.94 87.78 145 81.81 139.03 75.86 133.09 69.92 127.14 63.95 121.17 58.01 115.31 52.15 109.41 46.23 106.83 43.66"/><polyline class="cls-10" points="210.47 135.4 204.53 129.44 198.56 123.48 192.62 117.53 186.66 111.58 180.71 105.63 174.75 99.67 168.81 93.72 162.85 87.78 156.9 81.81 150.94 75.86 145 69.92 139.04 63.97 133.09 58.01 127.14 52.05 121.27 46.19 115.36 40.27 112.33 37.24 112.31 37.24"/><polyline class="cls-10" points="210.47 123.5 204.51 117.53 198.56 111.58 192.62 105.64 186.66 99.67 180.71 93.72 174.75 87.78 168.81 81.83 162.84 75.86 156.9 69.92 150.94 63.97 145 58.02 139.03 52.05 133.09 46.1 127.22 40.23 121.31 34.33 118.69 31.7"/><polyline class="cls-10" points="210.47 111.58 204.51 105.63 198.56 99.67 192.62 93.72 186.66 87.78 180.71 81.81 174.75 75.86 168.81 69.92 162.85 63.97 156.9 58.01 150.94 52.05 145 46.1 139.03 40.15 133.18 34.28 127.27 28.38 126.03 27.14"/><polyline class="cls-10" points="134.46 23.66 139.13 28.32 145 34.2 150.94 40.15 156.91 46.1 162.85 52.05 168.81 58.01 174.75 63.95 180.72 69.92 186.66 75.86 192.62 81.81 198.56 87.77 204.53 93.72 210.47 99.67"/><polyline class="cls-10" points="210.47 87.78 204.51 81.81 198.56 75.86 192.62 69.92 186.66 63.97 180.71 58.01 174.75 52.05 168.81 46.1 162.85 40.16 156.9 34.2 150.94 28.25 145.07 22.38 144.13 21.43"/><polyline class="cls-10" points="210.47 75.87 204.51 69.92 198.56 63.96 192.61 58.01 186.66 52.06 180.7 46.11 174.75 40.15 168.8 34.2 162.84 28.25 156.89 22.29 155.98 21.38"/><polyline class="cls-10" points="206.56 60.06 206.56 60.05 204.51 58.01 198.56 52.06 192.61 46.11 186.66 40.15 180.7 34.2 174.75 28.25 170.47 23.96"/><polyline class="cls-10" points="157.69 21.5 156.89 22.29 150.94 28.25 144.99 34.2 139.03 40.15 133.08 46.11 127.13 52.06 121.17 58.01 115.22 63.96 109.27 69.92 103.32 75.87 97.36 81.82 94.15 85.04"/><polyline class="cls-10" points="94.15 73.3 97.45 70 103.4 64.05 109.36 58.1 115.31 52.15 121.26 46.19 127.21 40.24 133.17 34.29 139.12 28.33 145.07 22.38 145.96 21.5"/><polyline class="cls-10" points="130.59 25.05 130.57 25.07 127.27 28.38 121.31 34.33 115.36 40.27 109.41 46.23 103.45 52.19 99.58 56.05 99.56 56.06"/><polyline class="cls-10" points="167.87 23.22 162.84 28.25 156.89 34.2 150.94 40.15 144.99 46.11 139.03 52.06 133.08 58.01 127.13 63.96 121.17 69.92 115.22 75.87 109.27 81.82 103.32 87.77 97.36 93.73 94.15 96.94"/><polyline class="cls-10" points="176.67 26.33 174.75 28.25 168.8 34.2 162.85 40.16 156.9 46.11 150.94 52.06 144.99 58.02 139.04 63.97 133.08 69.92 127.13 75.87 121.18 81.83 115.23 87.78 109.27 93.73 103.32 99.68 97.37 105.64 94.15 108.85"/><polyline class="cls-10" points="94.15 120.75 97.37 117.54 103.32 111.59 109.27 105.63 115.22 99.68 121.18 93.73 127.13 87.78 133.08 81.82 139.03 75.87 144.99 69.92 150.94 63.97 156.89 58.01 162.85 52.06 168.8 46.11 174.75 40.15 180.7 34.2 184.27 30.63"/><polyline class="cls-10" points="94.15 132.66 97.37 129.45 103.32 123.49 109.27 117.54 115.22 111.59 121.18 105.63 127.13 99.68 133.08 93.73 139.03 87.78 144.99 81.82 150.94 75.87 156.89 69.92 162.85 63.97 168.8 58.01 174.75 52.06 180.7 46.11 186.66 40.15 190.86 35.95"/><polyline class="cls-10" points="196.52 42.19 192.61 46.11 186.66 52.06 180.7 58.01 174.75 63.96 168.8 69.92 162.84 75.87 156.89 81.82 150.94 87.78 144.99 93.73 139.03 99.68 133.08 105.63 127.13 111.59 121.17 117.54 115.22 123.49 109.27 129.44 103.32 135.4 97.36 141.35 94.15 144.56"/><polyline class="cls-10" points="201.35 49.28 198.56 52.06 192.61 58.01 186.66 63.97 180.71 69.92 174.75 75.87 168.8 81.83 162.85 87.78 156.89 93.73 150.94 99.68 144.99 105.64 139.04 111.59 133.08 117.54 127.13 123.49 121.18 129.45 115.23 135.4 109.27 141.35 103.32 147.31 97.45 153.17 95.6 155.02"/><polyline class="cls-10" points="205.36 57.16 204.51 58.01 198.56 63.96 192.61 69.92 186.66 75.87 180.7 81.82 174.75 87.78 168.8 93.73 162.84 99.68 156.89 105.63 150.94 111.59 144.99 117.54 139.04 123.49 133.08 129.45 127.13 135.4 121.18 141.35 115.22 147.3 109.27 153.26 107.49 155.03"/><polyline class="cls-10" points="208.58 65.85 204.51 69.92 198.56 75.87 192.61 81.82 186.66 87.78 180.7 93.73 174.75 99.68 168.8 105.63 162.84 111.59 156.89 117.54 150.94 123.49 144.99 129.44 139.03 135.4 133.08 141.35 127.13 147.3 121.18 153.26 119.38 155.05"/><polyline class="cls-10" points="210.47 75.86 204.51 81.81 198.56 87.77 192.62 93.72 186.66 99.67 180.71 105.63 174.75 111.58 168.79 117.53 162.84 123.48 156.9 129.44 150.94 135.38 144.99 141.34 139.03 147.29 133.09 153.25 131.28 155.06"/><polyline class="cls-10" points="210.47 87.78 204.53 93.72 198.56 99.67 192.62 105.64 186.66 111.58 180.71 117.53 174.75 123.48 168.81 129.44 162.85 135.4 156.9 141.34 150.94 147.29 145 153.25 143.18 155.06"/><polyline class="cls-10" points="210.47 99.67 204.51 105.63 198.56 111.58 192.62 117.53 186.66 123.48 180.71 129.44 174.75 135.4 168.81 141.34 162.85 147.29 156.9 153.25 155.06 155.09"/><polyline class="cls-10" points="166.96 155.09 168.81 153.25 174.75 147.29 180.71 141.34 186.66 135.4 192.62 129.44 198.56 123.48 204.51 117.53 210.47 111.58"/><polyline class="cls-10" points="178.85 155.1 180.72 153.25 186.66 147.31 192.62 141.34 198.56 135.4 204.53 129.44 210.47 123.5"/><polyline class="cls-10" points="210.47 135.4 204.51 141.34 198.56 147.29 192.62 153.25 190.75 155.12"/><polyline class="cls-10" points="210.47 147.29 204.51 153.25 202.63 155.13"/></g></svg>